<svg width="17" height="17" viewBox="0 0 17 17" fill="none" xmlns="http://www.w3.org/2000/svg">
<path d="M15.4015 6.97944L16.4316 5.97833C17.1895 5.24167 17.1895 4.04222 16.4316 3.30556L15.0614 1.97389C14.3035 1.23722 13.0694 1.23722 12.3115 1.97389L11.2815 2.975L15.4015 6.97944ZM11.2815 8.32056L4.28522 15.1111H2.91512V13.7794L9.90169 6.98889L11.2815 8.32056ZM9.90169 4.30667L0.971706 12.9956V17H5.09174L14.0217 8.32056L9.90169 4.30667ZM15.5473 13.6944C15.5473 15.7628 13.0792 17 10.6888 17C10.1543 17 9.71706 16.575 9.71706 16.0556C9.71706 15.5361 10.1543 15.1111 10.6888 15.1111C12.1852 15.1111 13.6039 14.4217 13.6039 13.6944C13.6039 13.2506 13.1375 12.8728 12.4087 12.5611L13.8468 11.1633C14.8865 11.7583 15.5473 12.5517 15.5473 13.6944ZM1.5353 9.775C0.592741 9.24611 0 8.55667 0 7.55556C0 5.85556 1.83652 5.07167 3.45927 4.38222C4.46013 3.94778 5.83024 3.36222 5.83024 2.83333C5.83024 2.44611 5.07231 1.88889 3.88682 1.88889C2.66247 1.88889 2.13775 2.465 2.1086 2.49333C1.76851 2.88056 1.15633 2.92778 0.748214 2.60667C0.349814 2.28556 0.272078 1.70944 0.602458 1.30333C0.709345 1.17111 1.7102 0 3.88682 0C6.06345 0 7.77365 1.24667 7.77365 2.83333C7.77365 4.59944 5.89826 5.40222 4.23664 6.11056C3.32324 6.49778 1.94341 7.08333 1.94341 7.55556C1.94341 7.84833 2.36125 8.12222 2.98314 8.36778L1.5353 9.775Z" fill="#F8F8F8"/>
</svg>
