<svg width="25" height="25" viewBox="0 0 25 25" fill="none" xmlns="http://www.w3.org/2000/svg">
<path d="M22.5 4.16667H2.5C1.125 4.16667 0 5.10417 0 6.25V18.75C0 19.8958 1.125 20.8333 2.5 20.8333H22.5C23.875 20.8333 25 19.8958 25 18.75V6.25C25 5.10417 23.875 4.16667 22.5 4.16667ZM22.5 18.75H2.5V6.25H22.5V18.75ZM2.5 0H22.5V2.08333H2.5V0ZM2.5 22.9167H22.5V25H2.5V22.9167ZM12.5 12.5C14.225 12.5 15.625 11.3333 15.625 9.89583C15.625 8.45833 14.225 7.29167 12.5 7.29167C10.775 7.29167 9.375 8.45833 9.375 9.89583C9.375 11.3333 10.775 12.5 12.5 12.5ZM12.5 8.85417C13.1875 8.85417 13.75 9.32292 13.75 9.89583C13.75 10.4687 13.1875 10.9375 12.5 10.9375C11.8125 10.9375 11.25 10.4687 11.25 9.89583C11.25 9.32292 11.8125 8.85417 12.5 8.85417ZM18.75 16.6562C18.75 14.4792 14.6125 13.5417 12.5 13.5417C10.3875 13.5417 6.25 14.4792 6.25 16.6562V17.7083H18.75V16.6562ZM8.5125 16.1458C9.275 15.6042 11.05 15.1042 12.5 15.1042C13.9625 15.1042 15.7375 15.6042 16.5 16.1458H8.5125Z" fill="#919497"/>
</svg>
