<svg width="25" height="25" viewBox="0 0 25 25" fill="none" xmlns="http://www.w3.org/2000/svg">
<path d="M12.5 0C5.6075 0 0 5.16802 0 11.5195C0 14.6055 1.36 17.5672 3.75 19.7305V25L8.8501 22.5275C10.0488 22.8658 11.275 23.039 12.5 23.039C19.3925 23.039 25 17.871 25 11.5195C25 5.16802 19.3925 0 12.5 0ZM12.5 2.42516C18.0137 2.42516 22.5 6.50549 22.5 11.5195C22.5 16.5335 18.0137 20.6139 12.5 20.6139C11.5138 20.6139 10.5196 20.4735 9.54834 20.1994L8.6084 19.9342L7.73193 20.3581L6.25 21.0781V19.7305V18.6766L5.4541 17.959C3.5766 16.2589 2.5 13.9107 2.5 11.5195C2.5 6.50549 6.98625 2.42516 12.5 2.42516ZM11.25 8.48806L5 14.551L10.625 12.1258L13.75 14.551L20 8.48806L14.375 10.9132L11.25 8.48806Z" fill="#7FB9ED"/>
</svg>
