<svg width="25" height="25" viewBox="0 0 25 25" fill="none" xmlns="http://www.w3.org/2000/svg">
<path d="M12.5 3.125C14.2188 3.125 15.625 4.53125 15.625 6.25C15.625 7.96875 14.2188 9.375 12.5 9.375C10.7812 9.375 9.375 7.96875 9.375 6.25C9.375 4.53125 10.7812 3.125 12.5 3.125ZM12.5 18.75C16.7188 18.75 21.5625 20.7656 21.875 21.875H3.125C3.48438 20.75 8.29687 18.75 12.5 18.75ZM12.5 0C9.04687 0 6.25 2.79687 6.25 6.25C6.25 9.70313 9.04687 12.5 12.5 12.5C15.9531 12.5 18.75 9.70313 18.75 6.25C18.75 2.79687 15.9531 0 12.5 0ZM12.5 15.625C8.32812 15.625 0 17.7187 0 21.875V25H25V21.875C25 17.7187 16.6719 15.625 12.5 15.625Z" fill="#919497"/>
</svg>
